PERFORMER "xabean"
TITLE "23:03"
FILE "13 - aRGh Production - It Hurt.mp3" MP3
  TRACK 01 AUDIO
    TITLE "Flores"
    PERFORMER "Der Waldläufer"
    INDEX 01 00:00:00
  TRACK 02 AUDIO
    TITLE "Lotus"
    PERFORMER "Aether"
    INDEX 01 04:18:00
  TRACK 03 AUDIO
    TITLE "Romance (Synkro Remix)"
    PERFORMER "Bering Strait"
    INDEX 01 07:48:00
  TRACK 04 AUDIO
    TITLE "The Proposal"
    PERFORMER "AK feat. Mapps"
    INDEX 01 12:45:00
